<svg width="21" height="20" viewBox="0 0 21 20" fill="none" xmlns="http://www.w3.org/2000/svg">
<path fill-rule="evenodd" clip-rule="evenodd" d="M1.96581 6.22357C1.9082 7.15664 1.9082 8.28519 1.9082 9.66684V10.0002H8.65575C8.37842 9.86962 8.07506 9.78352 7.75432 9.75145L6.07487 9.5835C5.54526 9.53054 5.28045 9.50406 5.05488 9.45481C3.45662 9.10582 2.23961 7.82175 1.96581 6.22357ZM18.4491 5.44141L18.1582 14.1668C17.3578 14.1668 16.5903 13.8489 16.0243 13.283L15.0851 12.3438C14.9959 12.2546 14.9514 12.21 14.9117 12.1743C14.1514 11.4911 12.9983 11.4911 12.2381 12.1743C12.1984 12.21 12.1538 12.2546 12.0646 12.3438L11.4203 12.9881C10.9853 13.4231 10.2415 13.115 10.2415 12.4998V18.3335H10.5749C14.3461 18.3335 16.2317 18.3335 17.4033 17.1619C18.5749 15.9904 18.5749 14.1047 18.5749 10.3335V9.66684C18.5749 7.87427 18.5749 6.50774 18.4491 5.44141Z" fill="#0090F8"/>
<path d="M2.90852 8.99984C2.91065 7.43589 2.92663 6.29652 3.04573 5.41066C3.17727 4.4323 3.41787 3.9142 3.78688 3.54518C4.1559 3.17617 4.674 2.93557 5.65236 2.80403C6.6595 2.66863 7.99431 2.6665 9.9082 2.6665H10.5749C12.4888 2.6665 13.8236 2.66863 14.8307 2.80403C15.8091 2.93557 16.3272 3.17617 16.6962 3.54518C17.0652 3.9142 17.3058 4.4323 17.4373 5.41066C17.5727 6.4178 17.5749 7.75262 17.5749 9.6665V10.3332C17.5749 12.2471 17.5727 13.5819 17.4373 14.589C17.3058 15.5674 17.0652 16.0855 16.6962 16.4545C16.3272 16.8235 15.8091 17.0641 14.8307 17.1956C13.9449 17.3147 12.8055 17.3307 11.2415 17.3329V11.9998C11.2415 11.9817 11.2415 11.9635 11.2415 11.9454C11.2416 11.5214 11.2417 11.1092 11.196 10.7693C11.1445 10.3861 11.019 9.94884 10.6557 9.58562C10.2925 9.22241 9.85526 9.09689 9.47206 9.04537C9.13214 8.99967 8.72002 8.99975 8.29595 8.99983C8.27783 8.99983 8.25969 8.99984 8.24154 8.99984H2.90852Z" stroke="#0090F8" stroke-width="2"/>
<ellipse cx="13.5749" cy="6.66667" rx="1.66667" ry="1.66667" fill="#0090F8"/>
<path d="M6.9082 13.3335V12.3335H7.9082V13.3335H6.9082ZM3.36623 17.4477C2.93497 17.7927 2.30568 17.7228 1.96067 17.2915C1.61566 16.8603 1.68558 16.231 2.11684 15.886L3.36623 17.4477ZM5.9082 17.5002V13.3335H7.9082V17.5002H5.9082ZM6.9082 14.3335H2.74154V12.3335H6.9082V14.3335ZM7.5329 14.1144L3.36623 17.4477L2.11684 15.886L6.28351 12.5526L7.5329 14.1144Z" fill="#0090F8"/>
</svg>
